<?xml version="1.0" standalone="no"?>
<!DOCTYPE svg PUBLIC "-//W3C//DTD SVG 20010904//EN"
 "http://www.w3.org/TR/2001/REC-SVG-20010904/DTD/svg10.dtd">
<svg version="1.0" xmlns="http://www.w3.org/2000/svg"
 width="128.000000pt" height="128.000000pt" viewBox="0 0 128.000000 128.000000"
 preserveAspectRatio="xMidYMid meet">

<g transform="translate(0.000000,128.000000) scale(0.100000,-0.100000)"
fill="#21b0d0" stroke="none">
<path d="M331 1105 c-30 -9 -69 -24 -87 -36 -18 -11 -55 -26 -82 -34 -58 -18
-108 -67 -117 -117 -3 -18 -5 -155 -3 -305 3 -256 4 -273 24 -299 49 -66 58
-69 265 -72 l190 -3 34 -37 c30 -33 38 -37 85 -37 47 0 55 4 85 37 l34 37 190
3 c207 3 216 6 265 72 20 26 21 43 24 299 2 150 0 287 -3 305 -9 50 -59 99
-117 117 -27 8 -64 23 -82 34 -88 55 -244 64 -345 20 l-51 -21 -52 22 c-67 29
-183 36 -257 15z m232 -88 l37 -16 0 -274 0 -274 -57 13 c-73 17 -133 17 -206
0 l-57 -13 2 276 3 276 50 18 c60 21 171 18 228 -6z m400 0 l37 -16 0 -274 0
-274 -57 13 c-73 17 -133 17 -206 0 l-57 -13 2 276 3 276 50 18 c60 21 171 18
228 -6z m-763 -351 c0 -250 2 -295 15 -306 13 -10 30 -8 93 11 100 30 195 30
274 0 l58 -22 58 22 c79 30 174 30 274 0 63 -19 80 -21 93 -11 13 11 15 56 15
306 0 259 2 294 15 294 9 0 27 -11 40 -25 l25 -24 0 -271 0 -271 -25 -24 c-24
-25 -24 -25 -239 -25 l-215 0 -3 -31 c-6 -64 -70 -64 -76 0 l-3 31 -215 0
c-215 0 -215 0 -239 25 l-25 24 0 271 0 271 25 24 c13 14 31 25 40 25 13 0 15
-35 15 -294z"/>
<path d="M360 920 l0 -40 80 0 80 0 0 40 0 40 -80 0 -80 0 0 -40z"/>
<path d="M360 760 l0 -40 80 0 80 0 0 40 0 40 -80 0 -80 0 0 -40z"/>
<path d="M360 600 l0 -40 80 0 80 0 0 40 0 40 -80 0 -80 0 0 -40z"/>
<path d="M760 920 l0 -40 80 0 80 0 0 40 0 40 -80 0 -80 0 0 -40z"/>
<path d="M760 760 l0 -40 80 0 80 0 0 40 0 40 -80 0 -80 0 0 -40z"/>
<path d="M760 600 l0 -40 80 0 80 0 0 40 0 40 -80 0 -80 0 0 -40z"/>
</g>
</svg>
