<?xml version="1.0" standalone="no"?>
<!DOCTYPE svg PUBLIC "-//W3C//DTD SVG 20010904//EN"
 "http://www.w3.org/TR/2001/REC-SVG-20010904/DTD/svg10.dtd">
<svg version="1.0" xmlns="http://www.w3.org/2000/svg"
 width="128.000000pt" height="128.000000pt" viewBox="0 0 128.000000 128.000000"
 preserveAspectRatio="xMidYMid meet">

<g transform="translate(0.000000,128.000000) scale(0.100000,-0.100000)"
fill="#21b0d0" stroke="none">
<path d="M510 1234 c-6 -14 -10 -40 -10 -58 0 -38 -18 -56 -78 -79 -56 -22
-56 -22 -101 18 -21 19 -47 35 -58 35 -20 0 -153 -129 -153 -149 0 -6 16 -28
35 -50 39 -43 42 -64 20 -118 -25 -60 -42 -73 -96 -73 -61 0 -69 -13 -69 -120
0 -109 7 -120 74 -120 61 0 64 -3 96 -83 l22 -57 -41 -45 c-22 -24 -41 -50
-41 -56 0 -20 132 -149 153 -149 11 0 37 16 59 36 42 38 51 39 119 10 49 -20
60 -37 68 -98 l6 -53 104 -3 c118 -3 131 3 131 58 0 55 8 68 51 91 45 23 49
40 14 67 -21 16 -32 19 -57 12 -48 -14 -68 -38 -68 -82 0 -58 -14 -78 -55 -78
-57 0 -65 7 -65 59 0 61 -13 77 -85 108 -96 41 -116 41 -163 -1 -22 -20 -45
-36 -53 -36 -17 0 -69 50 -69 66 0 7 18 34 41 60 46 53 46 55 0 158 -31 68
-37 73 -111 78 -26 2 -38 10 -50 31 -13 24 -13 30 0 55 13 23 24 28 68 32 61
7 67 11 99 87 40 92 40 103 -1 152 -42 50 -45 70 -13 99 32 30 53 28 98 -13
22 -19 47 -35 58 -35 26 0 153 59 168 79 7 9 13 37 13 63 0 36 5 50 19 58 54
28 101 -6 101 -73 0 -54 13 -66 102 -101 77 -31 103 -28 144 15 34 36 66 37
93 3 28 -36 27 -48 -14 -93 -19 -21 -35 -48 -35 -60 0 -28 57 -163 73 -173 7
-4 29 -8 50 -8 59 0 77 -14 77 -59 0 -48 -13 -59 -74 -63 -39 -2 -53 -8 -68
-29 -16 -22 -17 -29 -7 -52 19 -42 46 -44 80 -8 24 27 35 31 76 31 27 0 54 5
61 12 16 16 16 200 0 216 -7 7 -33 12 -58 12 -57 0 -74 12 -100 73 -27 64 -26
70 15 116 19 21 35 45 35 52 0 22 -133 149 -156 149 -11 0 -33 -13 -49 -30
-32 -34 -64 -38 -118 -15 -45 19 -67 50 -67 95 0 55 -12 60 -127 60 -102 0
-104 0 -113 -26z"/>
<path d="M521 934 c-17 -14 -31 -29 -31 -33 0 -4 17 -13 39 -19 43 -13 121
-90 121 -119 0 -47 -69 -113 -117 -113 -25 0 -110 88 -118 123 -4 15 -11 29
-15 32 -11 7 -58 -47 -60 -70 -6 -56 2 -70 91 -161 104 -105 135 -123 183
-106 18 7 41 12 51 12 11 0 115 -95 250 -230 181 -180 237 -230 257 -230 17 0
39 14 67 45 22 24 41 49 41 55 0 28 -36 69 -241 276 l-219 220 6 70 6 69 -105
103 c-93 91 -108 102 -140 102 -24 0 -46 -9 -66 -26z"/>
</g>
</svg>
