<?xml version="1.0" standalone="no"?>
<!DOCTYPE svg PUBLIC "-//W3C//DTD SVG 20010904//EN"
 "http://www.w3.org/TR/2001/REC-SVG-20010904/DTD/svg10.dtd">
<svg version="1.0" xmlns="http://www.w3.org/2000/svg"
 width="128.000000pt" height="128.000000pt" viewBox="0 0 128.000000 128.000000"
 preserveAspectRatio="xMidYMid meet">

<g transform="translate(0.000000,128.000000) scale(0.100000,-0.100000)"
fill="#000" stroke="none">
<path d="M95 1266 c-41 -18 -83 -69 -90 -109 -3 -18 -5 -190 -3 -384 3 -337 4
-353 24 -379 47 -64 62 -69 222 -72 l147 -3 163 -162 162 -162 0 162 0 162
229 3 c252 3 255 4 305 72 20 27 21 39 21 406 0 367 -1 379 -21 406 -11 15
-33 37 -48 48 -27 21 -40 21 -554 23 -423 2 -533 0 -557 -11z m1080 -91 l25
-24 0 -351 0 -351 -25 -24 -24 -25 -256 0 -255 0 0 -102 0 -103 -103 103 -102
102 -153 0 c-149 0 -154 1 -177 25 l-25 24 0 351 0 351 25 24 24 25 511 0 511
0 24 -25z"/>
<path d="M240 1000 l0 -40 400 0 400 0 0 40 0 40 -400 0 -400 0 0 -40z"/>
<path d="M240 840 l0 -40 400 0 400 0 0 40 0 40 -400 0 -400 0 0 -40z"/>
<path d="M240 680 l0 -40 240 0 240 0 0 40 0 40 -240 0 -240 0 0 -40z"/>
</g>
</svg>
