<?xml version="1.0" standalone="no"?>
<!DOCTYPE svg PUBLIC "-//W3C//DTD SVG 20010904//EN"
 "http://www.w3.org/TR/2001/REC-SVG-20010904/DTD/svg10.dtd">
<svg version="1.0" xmlns="http://www.w3.org/2000/svg"
 width="128.000000pt" height="128.000000pt" viewBox="0 0 128.000000 128.000000"
 preserveAspectRatio="xMidYMid meet">

<g transform="translate(0.000000,128.000000) scale(0.100000,-0.100000)"
fill="#000" stroke="none">
<path d="M20 1260 c-20 -20 -20 -33 -20 -620 0 -587 0 -600 20 -620 20 -20 33
-20 568 -20 519 0 550 1 565 18 15 17 17 75 17 624 0 573 -1 606 -18 621 -17
15 -71 17 -565 17 -534 0 -547 0 -567 -20z m1050 -620 l0 -530 -480 0 -480 0
0 530 0 530 480 0 480 0 0 -530z"/>
<path d="M270 880 l0 -80 80 0 80 0 0 80 0 80 -80 0 -80 0 0 -80z m100 0 c0
-25 -4 -30 -25 -30 -21 0 -25 5 -25 30 0 25 4 30 25 30 21 0 25 -5 25 -30z"/>
<path d="M480 935 l0 -25 215 0 215 0 0 25 0 25 -215 0 -215 0 0 -25z"/>
<path d="M480 825 l0 -25 215 0 215 0 0 25 0 25 -215 0 -215 0 0 -25z"/>
<path d="M270 610 l0 -81 78 3 77 3 3 78 3 77 -81 0 -80 0 0 -80z m100 5 c0
-20 -5 -25 -25 -25 -20 0 -25 5 -25 25 0 20 5 25 25 25 20 0 25 -5 25 -25z"/>
<path d="M480 665 l0 -25 215 0 215 0 0 25 0 25 -215 0 -215 0 0 -25z"/>
<path d="M472 490 l-95 -100 -48 45 c-26 25 -57 45 -67 45 -24 0 -52 -31 -52
-57 0 -28 131 -153 162 -153 34 0 268 236 268 271 0 32 -17 49 -49 49 -18 0
-49 -26 -119 -100z"/>
<path d="M694 575 c-3 -8 -3 -22 0 -30 5 -13 23 -15 108 -13 102 3 103 3 103
28 0 25 -1 25 -103 28 -85 2 -103 0 -108 -13z"/>
<path d="M615 400 l-29 -31 159 3 160 3 0 25 0 25 -130 3 -131 3 -29 -31z"/>
<path d="M510 295 l-23 -25 211 0 212 0 0 25 0 25 -188 0 c-188 0 -189 0 -212
-25z"/>
</g>
</svg>
